<svg version="1.2" xmlns="http://www.w3.org/2000/svg" viewBox="0 0 32 32" width="32" height="32">
	<title>logo-icon-svg</title>
	<style>
		.s0 { fill: #fa7e00 } 
		.s1 { fill: #00bcfb } 
	</style>
	<g id="Layer">
		<path id="Layer" class="s0" d="m20.6 16.5l-4.1 4.1c-0.4 0.4-0.9 0.4-1.1 0l-4.1-4.1c-0.4-0.4-0.4-0.9 0-1.1l4.1-4.1c0.3-0.4 0.9-0.4 1.1 0l4.1 4.1c0.4 0.2 0.4 0.7 0 1.1z"/>
		<path id="Layer" class="s1" d="m3.3 12.6l-1.1 1.1-0.3 0.3-0.6 0.6c-0.7 0.6-0.7 1.7 0 2.3l0.6 0.6 0.3 0.3 6.9 7h0.4v-5.9l-2.6-2.6c-0.4-0.4-0.4-0.9 0-1.2l2.6-2.5zm9.3 15.8l1.1 1.2 0.3 0.2 0.6 0.7c0.7 0.6 1.7 0.6 2.3 0l0.6-0.7 0.3-0.2 7-7v-0.4h-5.9l-2.6 2.7c-0.4 0.4-0.9 0.4-1.2 0l-2.5-2.7zm15.9-9.2l1.1-1.2 0.3-0.2 0.6-0.7c0.6-0.6 0.6-1.6 0-2.3l-0.6-0.6-0.3-0.2-7-7h-0.4v5.8l2.7 2.7c0.4 0.4 0.4 0.9 0 1.1l-2.7 2.6v0.1h6.3zm-9.3-15.9l-1.2-1.1-0.2-0.3-0.6-0.6c-0.7-0.6-1.7-0.6-2.3 0l-0.7 0.6-0.2 0.3-7.2 7v0.3h5.8l2.7-2.6c0.3-0.4 0.8-0.4 1.1 0l2.8 2.6h0.1v-6.2z"/>
	</g>
</svg>