<svg version="1.2" xmlns="http://www.w3.org/2000/svg" viewBox="0 0 152 34" width="152" height="34">
	<title>logo-svg</title>
	<style>
		.s0 { fill: #fa7f00;stroke: #fa7f00;stroke-linecap: round;stroke-width: .4 } 
		.s1 { fill: #00bcfa } 
		.s2 { fill: #fa7f00 } 
	</style>
	<path id="Layer" fill-rule="evenodd" class="s0" d="m134.8 18.1v-6.5q0-0.1 0.1-0.2 0-0.2 0-0.3 0.1-0.1 0.1-0.2 0.1-0.1 0.2-0.1 0 0 0 0 0-0.1 0-0.1 0 0 0 0 0 0 0 0 0.3-0.3 0.8-0.3 0.2 0 0.3 0 0.1 0 0.2 0.1 0.1 0 0.2 0.1 0.1 0 0.2 0.1 0 0 0 0 0 0 0 0 0 0 0 0 0 0 0 0 0.3 0.4 0.3 0.9v14q0 0.2 0 0.5 0 0.2 0 0.4 0 0.2 0 0.4-0.1 0.3-0.1 0.5-0.2 1-0.6 1.9 0 0 0 0 0 0 0 0 0 0 0 0 0 0 0 0-0.1 0.2-0.2 0.5-0.1 0.2-0.2 0.4-0.1 0.2-0.3 0.4-0.1 0.2-0.3 0.4-0.1 0.1-0.2 0.2-0.1 0.2-0.2 0.3-0.1 0.1-0.2 0.2-0.1 0.1-0.2 0.2-1.2 1.1-2.6 1.6-1.5 0.5-3 0.5-0.9 0-1.8-0.2-0.9-0.2-1.7-0.6-0.7-0.3-0.7-1 0-0.2 0-0.3 0-0.1 0.1-0.2 0-0.1 0.1-0.2 0-0.1 0.1-0.2 0 0 0 0 0 0 0 0 0 0 0 0 0 0 0 0 0.4-0.3 0.9-0.3 0.2 0 0.5 0.1 0.2 0.1 0.5 0.2 0.3 0.1 0.6 0.2 0.3 0 0.6 0.1 0.3 0 0.6 0 0 0 0 0 0.1 0 0.1 0 0 0 0 0 0.1 0 0.1 0 1.1 0 2.1-0.3 1.1-0.4 1.9-1.1 0.1-0.2 0.3-0.3 0.1-0.1 0.2-0.3 0.1-0.2 0.2-0.3 0.1-0.2 0.2-0.4 0.1 0 0.1-0.1 0.1-0.1 0.1-0.2 0-0.1 0.1-0.1 0-0.1 0.1-0.2 0-0.2 0.1-0.3 0-0.2 0.1-0.3 0-0.2 0.1-0.4 0-0.1 0-0.3 0.1-0.6 0.1-1.3 0 0 0 0 0 0 0 0 0-0.1 0-0.1 0 0 0 0v-1.3q-1.1 1.1-2.6 1.6-1.5 0.6-3.1 0.6-1.5 0-2.9-0.5-1.5-0.5-2.7-1.6-0.2-0.2-0.4-0.4-0.2-0.2-0.4-0.5-0.2-0.2-0.3-0.5-0.2-0.2-0.4-0.5 0-0.1 0-0.1-0.1-0.1-0.1-0.2-0.1-0.1-0.1-0.2-0.1-0.1-0.1-0.2-0.7-1.6-0.7-3.7 0 0 0 0 0 0 0 0 0 0 0 0 0 0 0 0v-6.5q0-0.1 0-0.2 0-0.2 0.1-0.3 0-0.1 0.1-0.2 0-0.1 0.1-0.1 0 0 0 0 0-0.1 0-0.1 0 0 0 0 0 0 0 0 0.4-0.3 0.9-0.3 0.1 0 0.2 0 0.1 0 0.2 0.1 0.1 0 0.2 0.1 0.1 0 0.2 0.1 0 0 0 0 0 0 0 0 0 0 0 0 0 0 0 0 0.4 0.4 0.4 0.9v6.4q0 1.5 0.4 2.6 0 0 0 0 0 0 0 0.1 0 0 0 0 0.1 0 0.1 0.1 0 0.1 0.1 0.3 0.1 0.1 0.2 0.3 0 0.1 0.1 0.2 0.1 0.2 0.2 0.3 0.1 0.1 0.2 0.2 0 0.1 0.1 0.2 0.1 0.1 0.2 0.2 0.1 0.1 0.2 0.1 0.8 0.8 1.8 1.1 1 0.4 2.1 0.4 1.1 0 2.1-0.4 1.1-0.3 1.9-1 0.1-0.2 0.3-0.3 0.1-0.2 0.2-0.3 0.1-0.2 0.2-0.3 0.1-0.2 0.2-0.4 0.1 0 0.1-0.1 0.1-0.1 0.1-0.2 0-0.1 0.1-0.1 0-0.1 0.1-0.2 0-0.2 0.1-0.3 0-0.2 0.1-0.4 0-0.1 0.1-0.3 0-0.2 0-0.3 0.1-0.6 0.1-1.3 0 0 0 0 0 0 0 0 0-0.1 0-0.1 0 0 0 0zm-43.1-11.9q-0.3-0.6-0.8-0.9-0.2-0.1-0.3-0.2-0.2 0-0.3-0.1-0.2 0-0.3-0.1-0.2 0-0.3 0 0 0 0 0-0.1 0-0.1 0 0 0 0 0 0 0 0 0-0.3 0-0.5 0-0.3 0.1-0.5 0.2-0.2 0.1-0.4 0.2-0.2 0.1-0.4 0.3 0 0 0 0 0 0 0 0 0 0 0 0 0 0 0 0-0.2 0.2-0.3 0.4-0.1 0.2-0.2 0.4-0.1 0.2-0.2 0.5 0 0.2 0 0.5 0 0 0 0 0 0 0 0 0 0 0 0 0 0 0 0 0 0.2 0 0.5 0.1 0.2 0.1 0.4 0.1 0.2 0.3 0.4 0.1 0.2 0.3 0.4 0 0 0 0 0 0 0 0 0 0 0 0 0 0 0 0 0.2 0.2 0.4 0.3 0.2 0.2 0.4 0.3 0.2 0.1 0.4 0.1 0.3 0.1 0.5 0.1 0 0 0 0 0 0 0 0 0 0 0 0 0 0 0.1 0 0 0 0 0 0 0 0 0 0 0 0 0 0 0 0 0 0.4 0 0.8 0 0.4 0 0.8 0.1 0.5 0.1 0.9 0.2 0.4 0.2 0.7 0.3 1.6 0.7 2.7 1.8 1.2 1.2 1.8 2.7 0 0 0 0 0 0 0 0 0 0 0 0 0 0 0 0 0.2 0.4 0.3 0.8 0.1 0.4 0.2 0.8 0.1 0.4 0.1 0.8 0.1 0.5 0.1 0.9 0 1.7-0.7 3.2-0.6 1.6-1.8 2.7-1.1 1.2-2.7 1.8-1.5 0.7-3.2 0.7-1.3 0-2.5-0.4-1.2-0.4-2.2-1-1-0.7-1.8-1.6-0.8-1-1.3-2.1 0-0.1 0-0.1 0 0 0-0.1 0 0 0 0 0-0.1 0-0.1 0 0 0 0 0-0.1 0-0.1 0 0 0 0-0.1-0.1-0.1-0.1 0-0.1 0.1-0.2 0-0.1 0-0.2 0.1-0.1 0.1-0.2 0.1-0.1 0.2-0.2 0 0 0 0 0 0 0 0 0 0 0 0 0 0 0 0 0.4-0.4 0.8-0.4 0.1 0 0.2 0 0 0 0.1 0 0 0 0.1 0.1 0 0 0.1 0 0 0 0 0 0.1 0 0.1 0 0 0.1 0.1 0.1 0 0 0 0 0.3 0.2 0.5 0.5 0.6 1.7 2.1 2.7 1.5 1 3.4 1 0.2 0 0.5-0.1 0.3 0 0.6 0 0.3-0.1 0.5-0.2 0.3 0 0.6-0.1 0 0 0-0.1 0 0 0 0 0.1 0 0.1 0 0 0 0 0 1.1-0.5 1.9-1.3 0.8-0.8 1.3-1.9 0.5-1.1 0.5-2.3 0-1.3-0.5-2.4-0.5-1.1-1.3-1.9-0.8-0.8-1.9-1.3-0.3-0.1-0.6-0.2-0.2-0.1-0.5-0.1-0.3-0.1-0.6-0.1-0.3 0-0.6 0 0 0 0 0 0 0 0 0 0 0 0 0 0 0 0 0-0.2 0-0.4-0.1-0.2 0-0.4 0-0.2 0-0.4-0.1-0.2 0-0.3-0.1-0.1 0-0.1 0-0.1 0-0.1 0-0.1-0.1-0.1-0.1-0.1 0-0.1 0-0.9-0.4-1.6-1.1-0.7-0.6-1-1.5-0.1-0.2-0.2-0.4-0.1-0.2-0.1-0.5-0.1-0.2-0.1-0.4 0-0.2 0-0.4 0-0.1 0-0.1 0 0 0 0 0 0 0-0.1 0 0 0 0 0-1 0.4-1.9 0.3-0.9 1-1.6 0.7-0.6 1.6-1 0.2-0.1 0.4-0.2 0.2 0 0.4-0.1 0.2 0 0.4-0.1 0.2 0 0.5 0 0 0 0 0 0 0 0.1 0 0 0 0 0 0 0 0.1 0 1.4 0 2.5 0.7 1.1 0.7 1.7 1.8 0.2 0.4 0.2 0.6 0 0.1 0 0.3 0 0.1-0.1 0.2 0 0.1-0.1 0.2-0.1 0.1-0.1 0.2 0 0-0.1 0 0 0 0 0 0 0 0 0 0 0 0 0-0.3 0.3-0.8 0.3-0.1 0-0.1 0-0.1 0-0.1 0-0.1 0-0.1 0-0.1 0-0.1 0-0.1-0.1-0.1-0.1 0 0 0 0-0.1 0-0.1 0 0 0 0 0-0.1-0.1-0.1-0.1-0.1 0-0.1-0.1 0 0-0.1 0 0-0.1 0-0.1 0 0-0.1 0 0-0.1 0-0.1 0 0 0 0 0-0.1-0.1-0.1zm-23.1 19.2l-9-21.2q0 0 0-0.1 0 0 0 0 0-0.1 0-0.1 0 0 0-0.1 0 0 0 0-0.1 0-0.1-0.1 0 0 0 0 0 0 0-0.1 0-0.5 0.4-0.8 0-0.1 0.1-0.2 0.1 0 0.2-0.1 0.1 0 0.2 0 0.1-0.1 0.2-0.1 0 0 0 0 0 0 0 0 0.1 0 0.1 0 0 0 0 0 0.1 0 0.2 0 0.1 0.1 0.2 0.1 0 0 0.1 0 0.1 0.1 0.2 0.1 0 0.1 0.1 0.1 0.1 0.1 0.1 0.2 0.1 0 0.1 0.1 0.1 0.1 0.1 0.2 0 0 0 0 0 0 0 0 0 0 0 0 0 0 0 0l7.9 18.5 7.9-18.6q0 0 0-0.1 0.1 0 0.1-0.1 0 0 0.1-0.1 0 0 0 0 0.4-0.4 0.9-0.4 0 0 0.1 0 0 0 0.1 0 0 0 0.1 0 0 0 0.1 0.1 0 0 0.1 0 0.1 0 0.1 0.1 0.1 0 0.2 0.1 0 0 0.1 0.1 0 0 0 0.1 0.1 0 0.1 0 0 0.1 0 0.1 0.1 0.1 0.1 0.1 0 0.1 0 0.1 0 0.1 0.1 0.2 0 0 0 0.1 0 0 0 0.1 0 0.3-0.1 0.5l-9 21.2q0 0-0.1 0.1 0 0 0 0.1-0.1 0-0.1 0.1 0 0-0.1 0.1-0.2 0.3-0.7 0.3 0 0 0 0 0 0 0 0-0.1 0-0.1 0 0 0 0 0-0.1 0-0.1 0-0.1 0-0.2 0 0 0-0.1 0 0-0.1-0.1-0.1-0.3-0.1-0.5-0.4 0 0 0-0.1 0 0 0 0-0.1 0-0.1-0.1 0 0 0 0zm33 7.2v-14.3q0-0.2 0-0.4 0-0.3 0-0.5 0-0.2 0-0.4 0.1-0.2 0.1-0.5 0.2-1 0.6-1.9 0 0 0 0 0 0 0 0 0 0 0 0 0 0 0 0 0.1-0.2 0.2-0.4 0.1-0.3 0.2-0.5 0.2-0.2 0.3-0.4 0.1-0.2 0.3-0.4 0.1-0.1 0.2-0.2 0.1-0.2 0.2-0.3 0.1-0.1 0.2-0.2 0.1-0.1 0.2-0.2 1.2-1.1 2.6-1.6 1.5-0.5 3-0.5 1.5 0 2.9 0.5 1.5 0.5 2.6 1.6 0.3 0.2 0.5 0.4 0.2 0.2 0.4 0.5 0.2 0.2 0.4 0.5 0.1 0.3 0.3 0.5 0 0.1 0.1 0.2 0 0.1 0 0.2 0.1 0 0.1 0.1 0.1 0.1 0.1 0.2 0.7 1.6 0.7 3.7 0 0 0 0 0 0 0 0 0 0 0 0 0 0 0 0 0 2.1-0.7 3.7 0 0 0 0 0 0 0 0 0 0 0 0 0 0 0 0-0.1 0.2-0.2 0.5-0.1 0.2-0.2 0.4-0.2 0.2-0.3 0.4-0.1 0.2-0.3 0.4-0.1 0.1-0.2 0.2-0.1 0.2-0.2 0.3-0.1 0.1-0.2 0.2-0.1 0.1-0.2 0.2-1.2 1.1-2.6 1.6-1.5 0.5-3 0.5-1.6 0-3.1-0.5-1.5-0.6-2.6-1.7v8.1q0 0.1-0.1 0.2 0 0.1 0 0.3-0.1 0.1-0.1 0.2-0.1 0.1-0.2 0.1 0 0 0 0 0 0 0 0 0 0 0 0 0 0 0 0-0.3 0.4-0.8 0.4-0.2 0-0.3 0-0.1 0-0.2-0.1-0.1 0-0.2-0.1-0.1-0.1-0.2-0.1 0 0 0 0 0 0 0 0 0-0.1 0-0.1 0 0 0 0-0.3-0.3-0.3-0.8zm-49.2-26.4v18.7q0 0.1 0 0.2-0.1 0.2-0.1 0.3 0 0.1-0.1 0.2-0.1 0.1-0.2 0.1 0 0.1 0 0.1 0 0 0 0 0 0 0 0 0 0 0 0-0.3 0.3-0.8 0.3-0.1 0-0.2 0-0.2 0-0.3-0.1-0.1 0-0.2-0.1-0.1 0-0.1-0.1-0.1 0-0.1 0 0 0 0 0 0 0 0 0 0 0 0 0-0.3-0.4-0.3-0.9v-18.7q0-0.1 0-0.1 0-0.1-0.1-0.2 0-0.1-0.1-0.2 0-0.1-0.1-0.2 0 0 0 0 0 0 0 0 0 0 0 0 0 0 0 0-0.1 0-0.1 0 0-0.1-0.1-0.1 0 0 0-0.1-0.1 0-0.1 0-0.1 0-0.1 0-0.1 0-0.1-0.1-0.1 0-0.1 0-0.1 0-0.1 0h-3.8q-0.1 0-0.2 0-0.1 0-0.3-0.1-0.1 0-0.2-0.1-0.1 0-0.1-0.1 0 0 0 0 0 0 0 0 0 0 0 0 0 0 0 0-0.4-0.4-0.4-0.9 0-0.1 0-0.2 0-0.1 0.1-0.2 0-0.1 0.1-0.2 0.1-0.1 0.1-0.2 0 0 0 0 0 0 0 0 0 0 0 0 0 0 0.1 0 0.3-0.4 0.8-0.4h12q0.1 0 0.2 0 0.1 0.1 0.2 0.1 0.1 0.1 0.2 0.1 0.1 0.1 0.2 0.2 0 0 0 0 0 0 0 0 0 0 0 0 0 0 0 0 0.4 0.3 0.4 0.8 0 0.1 0 0.3-0.1 0.1-0.1 0.2-0.1 0.1-0.1 0.2-0.1 0.1-0.2 0.2 0 0 0 0 0 0 0 0 0 0 0 0 0 0 0 0-0.3 0.3-0.8 0.3h-3.8q-0.1 0-0.2 0-0.1 0.1-0.2 0.1-0.1 0-0.1 0.1-0.1 0-0.2 0.1 0 0 0 0 0 0 0 0 0 0 0 0 0 0 0 0 0 0.1-0.1 0.1 0 0 0 0.1-0.1 0-0.1 0.1 0 0 0 0-0.1 0.1-0.1 0.1 0 0.1 0 0.1 0 0.1 0 0.1 0 0.1 0 0.1zm51.6 12.2q0 0.1 0 0.3 0 0.1 0 0.3 0 0.2 0 0.3 0 0.2 0 0.3 0.2 0.8 0.5 1.4 0 0.2 0.1 0.3 0.1 0.2 0.1 0.3 0.1 0.2 0.2 0.3 0.1 0.1 0.2 0.2 0.1 0.1 0.1 0.2 0.1 0.1 0.2 0.2 0.1 0.1 0.2 0.2 0.1 0.1 0.2 0.2 0.8 0.7 1.8 1 1 0.4 2.1 0.4 1.1 0 2.1-0.4 1-0.3 1.8-1 0.2-0.2 0.3-0.3 0.2-0.2 0.3-0.3 0.1-0.2 0.2-0.3 0.1-0.2 0.2-0.4 0.1 0 0.1-0.1 0-0.1 0.1-0.2 0-0.1 0.1-0.1 0-0.1 0-0.2 0.1-0.2 0.1-0.3 0.1-0.2 0.2-0.3 0-0.2 0-0.4 0.1-0.1 0.1-0.3 0.1-0.6 0.1-1.3 0 0 0 0 0 0 0 0 0-0.1 0-0.1 0 0 0 0 0-0.2 0-0.3 0-0.2 0-0.3 0-0.2 0-0.3-0.1-0.2-0.1-0.4-0.1-0.7-0.3-1.3 0 0 0 0 0 0-0.1 0 0 0 0-0.1 0 0 0 0 0-0.1-0.1-0.3-0.1-0.1-0.2-0.3 0-0.1-0.1-0.3-0.1-0.1-0.2-0.2-0.1-0.1-0.2-0.2 0-0.1-0.1-0.2-0.1-0.1-0.2-0.2-0.1-0.1-0.2-0.2-0.8-0.7-1.8-1.1-1-0.3-2.1-0.3-1.1 0-2.1 0.3-1 0.4-1.8 1.1-0.2 0.2-0.3 0.3-0.2 0.2-0.3 0.3-0.1 0.2-0.2 0.4-0.1 0.1-0.2 0.3-0.1 0.1-0.1 0.1-0.1 0.1-0.1 0.2 0 0.1-0.1 0.2 0 0 0 0.1-0.1 0.2-0.2 0.3 0 0.2-0.1 0.3 0 0.2-0.1 0.3 0 0.2 0 0.4-0.1 0.5-0.1 1.2 0 0 0 0 0 0.1 0 0.1 0 0.1 0 0.1 0 0 0 0.1z"/>
	<g id="Icon">
		<g id="wings">
			<path id="wing-top" class="s1" d="m17.1 0.5c-0.2 0-0.4 0-0.6 0.2l-9.3 9.3c-0.1 0.1-0.1 0.4 0.1 0.4h6c0.2 0 0.4-0.1 0.5-0.3l2.8-2.6c0.1-0.2 0.3-0.2 0.5-0.2 0.2 0 0.4 0.1 0.6 0.2l2.5 2.5c0.2 0.1 0.4 0.1 0.4-0.3v-1.7-2.1-1.9c0 0-0.1-0.5-0.3-0.6l-2.6-2.7q-0.1 0-0.1-0.1-0.1 0-0.2-0.1 0 0-0.1 0-0.1 0-0.2 0z"/>
			<path id="wing-right" class="s1" d="m33.7 17.1q0-0.3-0.2-0.6l-9.4-9.3c-0.1-0.1-0.3-0.1-0.3 0.1v6c0 0.2 0.1 0.4 0.2 0.5l2.7 2.8c0.1 0.1 0.1 0.3 0.1 0.5 0 0.2 0 0.4-0.2 0.6-0.9 0.9-1.6 1.7-2.4 2.5-0.2 0.2-0.1 0.4 0.3 0.4h5.7c0 0 0.4-0.1 0.6-0.3l2.6-2.6q0.3-0.3 0.3-0.6z"/>
			<path id="wing-bottom" class="s1" d="m0.5 17c0 0.2 0 0.5 0.2 0.6l9.3 9.4c0.1 0.1 0.4 0 0.4-0.1v-6c0-0.2-0.1-0.4-0.3-0.6l-2.6-2.7c-0.2-0.2-0.2-0.3-0.2-0.5 0-0.2 0.1-0.5 0.2-0.6l2.5-2.6c0.1-0.1 0.1-0.3-0.3-0.3h-5.7c0 0-0.5 0-0.6 0.2l-2.7 2.7q0 0-0.1 0.1 0 0.1-0.1 0.1 0 0.1 0 0.2 0 0.1 0 0.1z"/>
			<path id="wing-left" class="s1" d="m17.1 33.7c0.2 0 0.4-0.1 0.6-0.2l9.3-9.4c0.2-0.1 0.1-0.3-0.1-0.3h-5.9c-0.3 0-0.4 0.1-0.6 0.3l-2.7 2.6c-0.2 0.1-0.4 0.2-0.6 0.2-0.2 0-0.4-0.1-0.5-0.2l-2.6-2.5c-0.2-0.2-0.4-0.1-0.4 0.3v1.7 4c0 0 0.1 0.4 0.3 0.6l2.6 2.7c0.2 0.1 0.4 0.2 0.6 0.2z"/>
		</g>
		<path id="dot" class="s2" d="m16.3 12.2c0.4-0.5 1.1-0.5 1.5 0l4.2 4.1c0.4 0.4 0.4 1.1 0 1.5l-4.2 4.2c-0.4 0.4-1.1 0.4-1.5 0l-4.1-4.2c-0.5-0.4-0.5-1.1 0-1.5z"/>
	</g>
</svg>